<mxfile host="app.diagrams.net" agent="Mozilla/5.0 (Windows NT 10.0; Win64; x64) AppleWebKit/537.36 (KHTML, like Gecko) Chrome/131.0.0.0 Safari/537.36 Edg/131.0.0.0" version="25.0.3">
  <diagram name="第 1 页" id="s9idZyOVtwdZzVEuMst7">
    <mxGraphModel dx="1306" dy="804" grid="1" gridSize="10" guides="1" tooltips="1" connect="1" arrows="1" fold="1" page="1" pageScale="1" pageWidth="827" pageHeight="1169" math="0" shadow="0">
      <root>
        <mxCell id="0" />
        <mxCell id="1" parent="0" />
        <mxCell id="KxajiIreWHLIOpgMVN39-17" value="" style="rounded=0;whiteSpace=wrap;html=1;" vertex="1" parent="1">
          <mxGeometry x="10" y="470" width="700" height="420" as="geometry" />
        </mxCell>
        <mxCell id="KxajiIreWHLIOpgMVN39-11" value="" style="edgeStyle=orthogonalEdgeStyle;rounded=0;orthogonalLoop=1;jettySize=auto;html=1;" edge="1" parent="1" source="KxajiIreWHLIOpgMVN39-1" target="KxajiIreWHLIOpgMVN39-10">
          <mxGeometry relative="1" as="geometry" />
        </mxCell>
        <mxCell id="KxajiIreWHLIOpgMVN39-1" value="&lt;font style=&quot;font-size: 17px;&quot;&gt;主任务&lt;/font&gt;" style="rounded=0;whiteSpace=wrap;html=1;verticalAlign=top;fontStyle=1" vertex="1" parent="1">
          <mxGeometry x="84.17" y="500" width="141.67" height="170" as="geometry" />
        </mxCell>
        <mxCell id="KxajiIreWHLIOpgMVN39-20" style="edgeStyle=orthogonalEdgeStyle;rounded=0;orthogonalLoop=1;jettySize=auto;html=1;exitX=1;exitY=0.5;exitDx=0;exitDy=0;entryX=0;entryY=0.5;entryDx=0;entryDy=0;" edge="1" parent="1" source="KxajiIreWHLIOpgMVN39-10" target="KxajiIreWHLIOpgMVN39-12">
          <mxGeometry relative="1" as="geometry" />
        </mxCell>
        <mxCell id="KxajiIreWHLIOpgMVN39-10" value="&lt;font style=&quot;font-size: 17px;&quot;&gt;任务到模板&lt;/font&gt;" style="rounded=0;whiteSpace=wrap;html=1;verticalAlign=top;fontStyle=1" vertex="1" parent="1">
          <mxGeometry x="305.84" y="500" width="141.67" height="170" as="geometry" />
        </mxCell>
        <mxCell id="KxajiIreWHLIOpgMVN39-12" value="&lt;font style=&quot;font-size: 17px;&quot;&gt;模板到人&lt;/font&gt;" style="rounded=0;whiteSpace=wrap;html=1;verticalAlign=top;fontStyle=1" vertex="1" parent="1">
          <mxGeometry x="500" y="500" width="141.67" height="170" as="geometry" />
        </mxCell>
        <mxCell id="KxajiIreWHLIOpgMVN39-13" value="子任务&lt;br&gt;子任务个数 = 主任务 * 模板数量 * 任务到人" style="rounded=0;whiteSpace=wrap;html=1;" vertex="1" parent="1">
          <mxGeometry x="84" y="690" width="556" height="60" as="geometry" />
        </mxCell>
        <mxCell id="KxajiIreWHLIOpgMVN39-19" style="edgeStyle=orthogonalEdgeStyle;rounded=0;orthogonalLoop=1;jettySize=auto;html=1;exitX=1;exitY=0.5;exitDx=0;exitDy=0;" edge="1" parent="1" source="KxajiIreWHLIOpgMVN39-14" target="KxajiIreWHLIOpgMVN39-15">
          <mxGeometry relative="1" as="geometry" />
        </mxCell>
        <mxCell id="KxajiIreWHLIOpgMVN39-14" value="主任务 - 到店" style="rounded=0;whiteSpace=wrap;html=1;fontStyle=1" vertex="1" parent="1">
          <mxGeometry x="84" y="780" width="120" height="60" as="geometry" />
        </mxCell>
        <mxCell id="KxajiIreWHLIOpgMVN39-21" style="edgeStyle=orthogonalEdgeStyle;rounded=0;orthogonalLoop=1;jettySize=auto;html=1;exitX=1;exitY=0.5;exitDx=0;exitDy=0;" edge="1" parent="1" source="KxajiIreWHLIOpgMVN39-15" target="KxajiIreWHLIOpgMVN39-16">
          <mxGeometry relative="1" as="geometry" />
        </mxCell>
        <mxCell id="KxajiIreWHLIOpgMVN39-15" value="任务到动作" style="rounded=0;whiteSpace=wrap;html=1;fontStyle=1" vertex="1" parent="1">
          <mxGeometry x="305.84" y="780" width="144.16" height="60" as="geometry" />
        </mxCell>
        <mxCell id="KxajiIreWHLIOpgMVN39-16" value="动作到SKU" style="rounded=0;whiteSpace=wrap;html=1;fontStyle=1" vertex="1" parent="1">
          <mxGeometry x="510.84000000000003" y="780" width="120" height="60" as="geometry" />
        </mxCell>
      </root>
    </mxGraphModel>
  </diagram>
</mxfile>
